<svg width="16" height="20" viewBox="0 0 16 20" fill="none" xmlns="http://www.w3.org/2000/svg">
<path d="M7.61905 0C4.45351 0 1.90476 2.54875 1.90476 5.71429V6.66667C0.857143 6.66667 0 7.52381 0 8.57143V18.0952C0 19.1429 0.857143 20 1.90476 20H13.3333C14.381 20 15.2381 19.1429 15.2381 18.0952V8.57143C15.2381 7.52381 14.381 6.66667 13.3333 6.66667V5.71429C13.3333 2.54875 10.7846 0 7.61905 0ZM7.61905 1.90476C9.78685 1.90476 11.4286 3.54649 11.4286 5.71429V6.66667H3.80952V5.71429C3.80952 3.54649 5.45125 1.90476 7.61905 1.90476ZM7.61905 11.4286C8.66667 11.4286 9.52381 12.2857 9.52381 13.3333C9.52381 14.381 8.66667 15.2381 7.61905 15.2381C6.57143 15.2381 5.71429 14.381 5.71429 13.3333C5.71429 12.2857 6.57143 11.4286 7.61905 11.4286Z" fill="#FF7C2D"/>
</svg>
