<svg width="54" height="71" viewBox="0 0 54 71" fill="none" xmlns="http://www.w3.org/2000/svg">
<path d="M27 0C15.7821 0 6.75 9.04807 6.75 20.2857V23.6667C3.0375 23.6667 0 26.7095 0 30.4286V64.2381C0 67.9571 3.0375 71 6.75 71H47.25C50.9625 71 54 67.9571 54 64.2381V30.4286C54 26.7095 50.9625 23.6667 47.25 23.6667V20.2857C47.25 9.04807 38.2179 0 27 0ZM27 6.7619C34.6821 6.7619 40.5 12.59 40.5 20.2857V23.6667H13.5V20.2857C13.5 12.59 19.3179 6.7619 27 6.7619ZM27 40.5714C30.7125 40.5714 33.75 43.6143 33.75 47.3333C33.75 51.0524 30.7125 54.0952 27 54.0952C23.2875 54.0952 20.25 51.0524 20.25 47.3333C20.25 43.6143 23.2875 40.5714 27 40.5714Z" fill="#FF7C2D"/>
</svg>
